<svg xmlns="http://www.w3.org/2000/svg" version="1.1" xmlns:xlink="http://www.w3.org/1999/xlink" xmlns:svgjs="http://svgjs.dev/svgjs" width="2000" height="1247" viewBox="0 0 2000 1247"><g transform="matrix(1,0,0,1,-1.2121212121212466,0.504858299595071)"><svg viewBox="0 0 396 247" data-background-color="#ffffff" preserveAspectRatio="xMidYMid meet" height="1247" width="2000" xmlns="http://www.w3.org/2000/svg" xmlns:xlink="http://www.w3.org/1999/xlink"><g id="tight-bounds" transform="matrix(1,0,0,1,0.2400000000000091,-0.09999999999999432)"><svg viewBox="0 0 395.52 247.2" height="247.2" width="395.52"><g><svg></svg></g><g><svg viewBox="0 0 395.52 247.2" height="247.2" width="395.52"><g transform="matrix(1,0,0,1,86.48117062158975,47.215199999999996)"><svg viewBox="0 0 222.55765875682047 152.7696" height="152.7696" width="222.55765875682047"><g><svg viewBox="0 0 222.55765875682047 152.7696" height="152.7696" width="222.55765875682047"><g><svg viewBox="0 0 244.43135999999998 167.78430049651854" height="152.7696" width="222.55765875682047"><g><svg viewBox="0 0 244.43135999999998 167.78430049651854" height="167.78430049651854" width="244.43135999999998"><g id="textblocktransform"><svg viewBox="0 0 244.43135999999998 167.78430049651854" height="167.78430049651854" width="244.43135999999998" id="textblock"><g><svg viewBox="0 0 244.43135999999998 91.88385495327103" height="91.88385495327103" width="244.43135999999998"><g transform="matrix(1,0,0,1,0,0)"><svg width="244.43135999999998" viewBox="1.9500000476837158 -35.599998474121094 96.29000091552734 36.19999694824219" height="91.88385495327103" data-palette-color="#3c2c32"><path d="M20.9 0.6Q15.55 0.6 11.23-1.73 6.9-4.05 4.42-8.18 1.95-12.3 1.95-17.5L1.95-17.5Q1.95-22.7 4.42-26.83 6.9-30.95 11.23-33.27 15.55-35.6 20.95-35.6L20.95-35.6Q25.5-35.6 29.18-34 32.85-32.4 35.35-29.4L35.35-29.4 30.15-24.6Q26.6-28.7 21.35-28.7L21.35-28.7Q18.1-28.7 15.55-27.28 13-25.85 11.58-23.3 10.15-20.75 10.15-17.5L10.15-17.5Q10.15-14.25 11.58-11.7 13-9.15 15.55-7.73 18.1-6.3 21.35-6.3L21.35-6.3Q26.6-6.3 30.15-10.45L30.15-10.45 35.35-5.65Q32.85-2.6 29.15-1 25.45 0.6 20.9 0.6L20.9 0.6ZM52.1 0.4Q47.85 0.4 44.47-1.38 41.1-3.15 39.2-6.3 37.3-9.45 37.3-13.45L37.3-13.45Q37.3-17.45 39.2-20.6 41.1-23.75 44.47-25.53 47.85-27.3 52.1-27.3L52.1-27.3Q56.35-27.3 59.7-25.53 63.05-23.75 64.95-20.6 66.85-17.45 66.85-13.45L66.85-13.45Q66.85-9.45 64.95-6.3 63.05-3.15 59.7-1.38 56.35 0.4 52.1 0.4L52.1 0.4ZM52.1-6Q55.1-6 57.02-8.03 58.95-10.05 58.95-13.45L58.95-13.45Q58.95-16.85 57.02-18.88 55.1-20.9 52.1-20.9L52.1-20.9Q49.1-20.9 47.15-18.88 45.2-16.85 45.2-13.45L45.2-13.45Q45.2-10.05 47.15-8.03 49.1-6 52.1-6L52.1-6ZM72.59 0L72.59-35 80.69-35 80.69-6.6 98.24-6.6 98.24 0 72.59 0Z" opacity="1" transform="matrix(1,0,0,1,0,0)" fill="#3c2c32" class="wordmark-text-0" data-fill-palette-color="primary" id="text-0"></path></svg></g></svg></g><g transform="matrix(1,0,0,1,0,113.57542789521943)"><svg viewBox="0 0 244.43135999999998 54.2088726012991" height="54.2088726012991" width="244.43135999999998"><g transform="matrix(1,0,0,1,0,0)"><svg width="244.43135999999998" viewBox="2 -35.349998474121094 161.6300048828125 35.849998474121094" height="54.2088726012991" data-palette-color="#f9ad59"><path d="M18.35 0L2.2 0Q2 0 2-0.25L2-0.25 2.05-34.55Q2.05-34.8 2.3-34.8L2.3-34.8 7.85-34.8Q8.1-34.8 8.1-34.55L8.1-34.55 8.05-6.15 18.35-6.15Q18.6-6.15 18.6-5.9L18.6-5.9 18.6-0.25Q18.6 0 18.35 0L18.35 0ZM38.2 0L22.05 0Q21.85 0 21.85-0.25L21.85-0.25 21.9-34.6Q21.9-34.8 22.1-34.8L22.1-34.8 38.15-34.8Q38.35-34.8 38.35-34.55L38.35-34.55 38.35-28.95Q38.35-28.75 38.15-28.75L38.15-28.75 27.9-28.75 27.9-20.95 38.15-20.95Q38.35-20.95 38.35-20.75L38.35-20.75 38.4-15.1Q38.4-14.9 38.2-14.9L38.2-14.9 27.9-14.9 27.9-6.15 38.2-6.15Q38.4-6.15 38.4-5.9L38.4-5.9 38.4-0.2Q38.4 0 38.2 0L38.2 0ZM40.64-0.25L40.64-0.25 46.84-34.6Q46.89-34.8 47.09-34.8L47.09-34.8 54.34-34.8Q54.55-34.8 54.59-34.6L54.59-34.6 60.55-0.25Q60.59 0 60.34 0L60.34 0 54.8 0Q54.59 0 54.55-0.25L54.55-0.25 53.99-3.9 47.2-3.9 46.64-0.25Q46.59 0 46.39 0L46.39 0 40.84 0Q40.64 0 40.64-0.25ZM50.45-23.3L48.2-9.25 52.99-9.25 50.95-23.3 50.64-25.15 50.45-23.3ZM69.54 0L63.89 0Q63.69 0 63.69-0.25L63.69-0.25 63.79-34.6Q63.79-34.8 63.99-34.8L63.99-34.8 74.09-34.8Q76.79-34.8 79.07-33.48 81.34-32.15 82.69-29.93 84.04-27.7 84.04-24.9L84.04-24.9Q84.04-23.05 83.49-21.58 82.94-20.1 82.19-19.07 81.44-18.05 80.84-17.55L80.84-17.55Q83.54-14.55 83.54-10.5L83.54-10.5 83.59-0.25Q83.59 0 83.34 0L83.34 0 77.69 0Q77.49 0 77.49-0.15L77.49-0.15 77.49-10.5Q77.49-12.3 76.22-13.63 74.94-14.95 73.09-14.95L73.09-14.95 69.79-14.95 69.74-0.25Q69.74 0 69.54 0L69.54 0ZM69.79-28.8L69.79-20.95 74.09-20.95Q75.64-20.95 76.84-22.1 78.04-23.25 78.04-24.9L78.04-24.9Q78.04-26.5 76.87-27.65 75.69-28.8 74.09-28.8L74.09-28.8 69.79-28.8ZM93.24 0L88.24 0Q87.84 0 87.84-0.35L87.84-0.35 87.79-34.4Q87.79-34.8 88.19-34.8L88.19-34.8 92.69-34.8 101.14-15.1 100.89-34.4Q100.89-34.8 101.34-34.8L101.34-34.8 106.29-34.8Q106.59-34.8 106.59-34.4L106.59-34.4 106.64-0.3Q106.64 0 106.39 0L106.39 0 101.99 0 93.34-18.4 93.69-0.4Q93.69 0 93.24 0L93.24 0ZM116.89 0L111.24 0Q110.99 0 110.99-0.25L110.99-0.25 111.04-34.6Q111.04-34.8 111.24-34.8L111.24-34.8 116.84-34.8Q117.04-34.8 117.04-34.6L117.04-34.6 117.09-0.25Q117.09 0 116.89 0L116.89 0ZM126.94 0L121.94 0Q121.54 0 121.54-0.35L121.54-0.35 121.49-34.4Q121.49-34.8 121.89-34.8L121.89-34.8 126.39-34.8 134.84-15.1 134.59-34.4Q134.59-34.8 135.04-34.8L135.04-34.8 139.99-34.8Q140.29-34.8 140.29-34.4L140.29-34.4 140.34-0.3Q140.34 0 140.09 0L140.09 0 135.69 0 127.04-18.4 127.39-0.4Q127.39 0 126.94 0L126.94 0ZM153.83 0.5L153.83 0.5Q151.13 0.5 148.93-0.85 146.73-2.2 145.41-4.48 144.08-6.75 144.08-9.55L144.08-9.55 144.08-25.4Q144.08-28.1 145.41-30.38 146.73-32.65 148.96-34 151.18-35.35 153.83-35.35L153.83-35.35Q156.58-35.35 158.81-34.02 161.03-32.7 162.33-30.45 163.63-28.2 163.63-25.4L163.63-25.4 163.63-23.1Q163.63-22.9 163.38-22.9L163.38-22.9 157.78-22.9Q157.58-22.9 157.58-23.1L157.58-23.1 157.58-25Q157.58-26.9 156.51-28.15 155.43-29.4 153.83-29.4L153.83-29.4Q152.38-29.4 151.26-28.2 150.13-27 150.13-25.4L150.13-25.4 150.13-9.55Q150.13-7.9 151.23-6.73 152.33-5.55 153.83-5.55L153.83-5.55Q155.43-5.55 156.51-6.7 157.58-7.85 157.58-9.55L157.58-9.55 157.58-12 154.08-12Q153.83-12 153.83-12.25L153.83-12.25 153.83-17.85Q153.83-18.1 154.08-18.1L154.08-18.1 163.43-18.1Q163.63-18.1 163.63-17.85L163.63-17.85 163.63-9.55Q163.63-6.75 162.31-4.48 160.98-2.2 158.78-0.85 156.58 0.5 153.83 0.5Z" opacity="1" transform="matrix(1,0,0,1,0,0)" fill="#f9ad59" class="slogan-text-1" data-fill-palette-color="secondary" id="text-1"></path></svg></g></svg></g></svg></g></svg></g></svg></g></svg></g></svg></g><path d="M262.55 41.215L262.55 0 15.35 0 15.35 247.2 262.55 247.2 262.55 205.985 255.006 205.985 255.006 239.655 22.895 239.655 22.895 7.545 255.006 7.545 255.006 41.215Z" fill="#3c2c32" stroke="transparent" data-fill-palette-color="primary"></path></svg></g><defs></defs></svg><rect width="395.52" height="247.2" fill="none" stroke="none" visibility="hidden"></rect></g></svg></g></svg>